PathFileType	4	(X/Y/Z)	Patient4_TMGait_0pt4_01_right_12.trc.trc
DataRate	CameraRate	NumFrames	NumMarkers	Units	OrigDataRate	OrigDataStartFrame	OrigNumFrames
70.351758793970	70.351758793970	4	33	mm	70.351758793970	53	       141
Frame#	Time	Sacral			L.Shoulder			Chest			R.Shoulder			Neck			R.ASIS			L.ASIS			R.Thigh.Superior			R.Thigh.Lateral			R.Thigh.Inferior			R.Patella			L.Thigh.Superior			L.Thigh.Lateral			L.Thigh.Inferior			L.Patella			L.Shank.Superior			L.Shank.Lateral			L.Shank.Inferior			R.Shank.Superior			R.Shank.Lateral			R.Shank.Inferior			R.Heel			R.Midfoot.Superior			R.Midfoot.Lateral			R.Toe			L.Heel			L.Midfoot.Lateral			L.Midfoot.Superior			L.Toe			L.Elbow			L.Wrist			R.Elbow			R.Wrist			
		X1	Y1	Z1	X2	Y2	Z2	X3	Y3	Z3	X4	Y4	Z4	X5	Y5	Z5	X6	Y6	Z6	X7	Y7	Z7	X8	Y8	Z8	X9	Y9	Z9	X10	Y10	Z10	X11	Y11	Z11	X12	Y12	Z12	X13	Y13	Z13	X14	Y14	Z14	X15	Y15	Z15	X16	Y16	Z16	X17	Y17	Z17	X18	Y18	Z18	X19	Y19	Z19	X20	Y20	Z20	X21	Y21	Z21	X22	Y22	Z22	X23	Y23	Z23	X24	Y24	Z24	X25	Y25	Z25	X26	Y26	Z26	X27	Y27	Z27	X28	Y28	Z28	X29	Y29	Z29	X30	Y30	Z30	X31	Y31	Z31	X32	Y32	Z32	X33	Y33	Z33	

53	16.029142857143	816.808625720861	1006.113851769635	564.239975912189	974.150373954592	1440.615572373991	375.859181246647	1095.546484558712	1367.427592252554	520.850103434354	1038.062467108237	1438.105011891820	706.271940154294	990.661221022987	1499.713802752701	532.549890983778	1056.785340916227	945.578256118699	654.446307089724	1012.937773466532	972.292287212067	383.156461182046	1086.231940214675	743.159544735921	622.044974457562	1005.430642970034	633.981735531103	685.356497489222	1078.018885066610	582.433650240424	601.569209618729	1074.892074794150	495.554730483909	607.406376968413	1100.049250375968	795.366876802394	396.047272710122	1055.887512846408	667.683060603324	315.691276472825	1167.784428519599	612.338213227170	364.245667712883	1191.822147275534	534.300184938705	350.928974500700	1152.679577652422	458.179456466973	344.146327659989	1039.411087133867	360.586339631344	306.288756318477	1093.921553904724	236.500853680459	349.408240682538	1047.156342538963	406.146527545664	611.249488553459	974.525128611223	300.509820254592	669.264921830133	1017.818605387996	208.274039458006	601.477922412631	884.187116268903	42.282228649755	567.343219732222	1057.757600661385	98.783679735529	595.989459860775	971.929345362235	36.323080884277	637.444056902219	1178.819379442318	47.164192955557	612.518074819960	960.558775881909	92.076637366136	401.232639241384	1021.042513211467	79.366541104691	311.833696374667	1113.321751886824	133.087507132813	322.505298411311	1227.946685446005	68.626990784142	277.609007254424	892.502444562792	1094.519702001731	268.744640314953	959.691253848162	844.288091909771	225.589618015059	1104.640562532178	1099.314775569678	832.124517409806	1317.970957116897	960.440030967996	787.077104621616	
54	16.043357142857	815.806484006502	1006.367248199230	565.146311249285	972.792772187142	1441.126102725855	377.456962273529	1094.797775280844	1367.372373847518	521.595932477076	1038.325529498211	1437.518387363670	707.520083534172	990.048769910953	1499.717409559752	534.299081380434	1055.954191836341	945.567237205191	654.754569039568	1011.617414383811	972.395220316667	383.512639056975	1083.755603087423	742.776988717851	622.370570805220	1002.188503256704	634.005904098462	685.943395887697	1074.088639579273	581.987779103020	602.137436916200	1070.235001056407	495.273627459173	608.076433897530	1097.328250172774	794.628394354828	396.759420920568	1053.381538729130	667.230734726170	315.898386362253	1164.376013034795	611.492179378815	365.949271897864	1189.547360757102	535.786484872516	352.503926539141	1154.539025972143	459.864445245716	344.670776393992	1048.431017666560	355.589102025785	304.513038760356	1110.512608461740	234.621122196835	347.311592669571	1042.340736318164	405.935992007346	611.756129216374	969.355223873076	300.452104816327	669.525876301147	1012.459220531076	208.156734105261	601.757113513680	878.496733635558	42.293358940646	567.389379966146	1052.074572355541	98.746850150942	596.096009705804	966.207906400742	36.314238473405	637.506882264106	1173.089867990686	47.115763077802	612.685571099810	986.204667981642	81.828588095004	396.643765463831	1048.623967624628	72.856890300927	308.102180169473	1137.566283174191	131.894490206876	319.916238744808	1256.420897680595	74.213543052148	276.585743303988	888.283260072242	1095.852856156354	270.204186931612	951.929938259585	844.817403881845	226.748667246939	1111.379050206072	1099.545999864792	831.013315331786	1329.044111694995	968.519081899273	783.729247992343	
55	16.057571428571	814.809737002911	1006.478127683972	565.804069707222	971.527836562755	1441.515720594488	378.839914855144	1094.030455288095	1367.226360974568	522.229781090071	1038.396651057500	1436.836587535891	708.596522336725	989.412709539414	1499.623496168007	535.843961582866	1055.136510526807	945.490889240664	654.958525522482	1010.420719760721	972.364270810646	383.745273956441	1081.504067699237	742.354656981566	622.599005727267	999.186734795688	633.953500040121	686.332895662670	1070.386165203092	581.526130791465	602.489623615352	1065.838092328130	494.954801334377	608.475708412594	1094.561148201413	793.479965277291	397.436528128753	1050.605616181516	666.493139280535	316.000584511070	1160.603646343149	610.130468866932	367.594333285646	1186.772845631483	536.827865878565	354.228336617532	1155.795982416019	461.421810598049	345.361099165173	1057.194373026188	351.093723763916	302.602404214271	1126.265756656182	233.645124337954	345.437712617072	1037.744148887785	405.666571220435	612.025023616978	964.446089341646	300.365432395915	669.680858553701	1007.213451466833	207.993188027850	601.886865999959	872.800020674706	42.303680594409	567.425489952366	1046.399794023108	98.682082430746	596.148289340498	960.488670644764	36.313148341904	637.554219151257	1167.365562286726	47.039661918351	612.831457545433	1010.971318271333	73.540866739202	391.979397041503	1075.438520470175	67.931828544346	304.620348709969	1160.880226143730	131.790630758008	317.779449772888	1283.502422458605	80.536870228762	276.722082471268	884.353087085253	1097.029095122322	271.464016420596	944.585239736480	845.253246758337	227.854604209060	1117.550456444910	1099.731441257732	829.695600241239	1339.099171529157	976.416247518888	780.209315886319	
56	16.071785714286	813.836796120830	1006.471012647500	566.239127313434	970.352968652454	1441.802836862103	379.989803156196	1093.245651563740	1367.025109652285	522.741948436676	1038.278645968778	1436.115162936107	709.484934059124	988.752174608429	1499.463088781720	537.157000158002	1054.349149514669	945.363997959716	655.057777616666	1009.330799036247	972.246235889068	383.859135676075	1079.463561909011	741.899099824976	622.706882015718	996.406533948855	633.838265810182	686.515759729419	1066.889150316539	581.050997692347	602.616627945327	1061.674169678020	494.604796204739	608.595515701763	1091.847237013230	792.062547426965	398.031378275035	1047.643445076573	665.562859816687	316.016240694169	1156.651993942648	608.425634686116	369.054870794596	1183.665142514275	537.524494918361	356.001413606877	1156.535150447927	462.889302661017	346.154373526224	1065.537014780811	347.221401350346	300.681503919849	1140.934679640351	233.559476715265	343.852679099364	1033.337720824669	405.348962547793	612.058607112270	959.763234721892	300.263396084233	669.730932338268	1002.064259168752	207.794742287104	601.875259138439	867.097990629752	42.313271032759	567.453472546067	1040.733158969788	98.598963487251	596.154497487709	954.771408436492	36.319460249370	637.588017091044	1161.646329574518	46.943021998727	612.951434280606	1034.399127076864	67.222781150965	387.503995888928	1100.952116637661	64.582599531284	301.557720178279	1182.837380151029	132.731281517546	316.151436559868	1308.745618515687	87.470441596961	277.893876362470	880.718773364081	1098.056115912468	272.527824076748	937.680214766738	845.598946288004	228.896863335399	1123.117382599460	1099.907178516411	828.218298683934	1348.091110195100	984.089688730736	776.570237454767	
